HIERARCHY
ROOT pelvis
{
	OFFSET 0.000000 0.000000 0.000000
	CHANNELS 6 Xposition Yposition Zposition Zrotation Yrotation Xrotation
	JOINT left_hip
	{
		OFFSET 0.055779 -0.080629 -0.017705
		CHANNELS 3 Zrotation Yrotation Xrotation
		JOINT left_knee
		{
			OFFSET 0.039469 -0.359247 0.009008
			CHANNELS 3 Zrotation Yrotation Xrotation
			JOINT left_ankle
			{
				OFFSET -0.013809 -0.389899 -0.036404
				CHANNELS 3 Zrotation Yrotation Xrotation
				JOINT left_foot
				{
					OFFSET 0.037897 -0.056346 0.116500
					CHANNELS 3 Zrotation Yrotation Xrotation
					End Site
					{
						OFFSET 0.000000 0.000000 0.000000
					}
				}
			}
		}
	}
	JOINT right_hip
	{
		OFFSET -0.057787 -0.088871 -0.013401
		CHANNELS 3 Zrotation Yrotation Xrotation
		JOINT right_knee
		{
			OFFSET -0.039496 -0.356943 -0.002206
			CHANNELS 3 Zrotation Yrotation Xrotation
			JOINT right_ankle
			{
				OFFSET 0.017959 -0.383749 -0.033094
				CHANNELS 3 Zrotation Yrotation Xrotation
				JOINT right_foot
				{
					OFFSET -0.031235 -0.058281 0.124713
					CHANNELS 3 Zrotation Yrotation Xrotation
					End Site
					{
						OFFSET 0.000000 0.000000 0.000000
					}
				}
			}
		}
	}
	JOINT spine1
	{
		OFFSET 0.004196 0.122659 -0.034271
		CHANNELS 3 Zrotation Yrotation Xrotation
		JOINT spine2
		{
			OFFSET 0.005122 0.143143 0.029537
			CHANNELS 3 Zrotation Yrotation Xrotation
			JOINT spine3
			{
				OFFSET -0.001923 0.057757 0.004628
				CHANNELS 3 Zrotation Yrotation Xrotation
				JOINT neck
				{
					OFFSET -0.013781 0.203940 -0.035143
					CHANNELS 3 Zrotation Yrotation Xrotation
					JOINT head
					{
						OFFSET 0.009065 0.086539 0.049216
						CHANNELS 3 Zrotation Yrotation Xrotation
						End Site
						{
							OFFSET 0.000000 0.000000 0.000000
						}
					}
				}
				JOINT left_collar
				{
					OFFSET 0.070315 0.109742 -0.020357
					CHANNELS 3 Zrotation Yrotation Xrotation
					JOINT left_shoulder
					{
						OFFSET 0.122280 0.043464 -0.020451
						CHANNELS 3 Zrotation Yrotation Xrotation
						JOINT left_elbow
						{
							OFFSET 0.245347 -0.013316 -0.020298
							CHANNELS 3 Zrotation Yrotation Xrotation
							JOINT left_wrist
							{
								OFFSET 0.251466 0.010925 -0.008411
								CHANNELS 3 Zrotation Yrotation Xrotation
								End Site
								{
									OFFSET 0.000000 0.000000 0.000000
								}
							}
						}
					}
				}
				JOINT right_collar
				{
					OFFSET -0.083386 0.108780 -0.024575
					CHANNELS 3 Zrotation Yrotation Xrotation
					JOINT right_shoulder
					{
						OFFSET -0.112806 0.044731 -0.008805
						CHANNELS 3 Zrotation Yrotation Xrotation
						JOINT right_elbow
						{
							OFFSET -0.248827 -0.010357 -0.028458
							CHANNELS 3 Zrotation Yrotation Xrotation
							JOINT right_wrist
							{
								OFFSET -0.255561 0.006434 -0.006231
								CHANNELS 3 Zrotation Yrotation Xrotation
								End Site
								{
									OFFSET 0.000000 0.000000 0.000000
								}
							}
						}
					}
				}
			}
		}
	}
}
MOTION
Frames: 5
Frame Time: 0.033333
-0.048818 0.607015 0.030317 -3.937100 -8.364600 11.652400 -7.829985 22.859698 -67.597109 0.739511 -0.666451 72.247603 3.995661 24.652308 -4.010349 0.000000 0.000000 0.000000 -9.663253 -7.379895 -12.523201 2.004625 0.986880 83.988068 0.905618 -25.861569 -7.233163 0.000000 0.000000 0.000000 -3.428409 9.551219 14.097885 0.000000 0.000000 0.000000 2.999958 2.545785 -9.793271 -5.504703 -1.265000 13.568970 9.917099 0.487054 -32.367612 0.000000 0.000000 0.000000 -160.123751 -62.629312 169.927918 124.997345 -43.122980 -96.264856 -0.508638 2.815096 -20.479821 0.000000 0.000000 0.000000 77.917291 54.636482 66.159190 -24.057853 32.371472 -12.080153 0.008548 0.370946 2.640385
-0.053080 0.603282 -0.009043 -5.625300 -15.065800 13.150000 -6.887929 27.010252 -71.562005 0.691170 -0.683635 72.510339 4.100757 25.213119 -1.642930 0.000000 0.000000 0.000000 -15.142956 -4.938778 -4.738212 2.061368 1.317337 68.434783 1.098797 -26.226151 -5.605868 0.000000 0.000000 0.000000 -2.188493 11.065176 12.319010 0.000000 0.000000 0.000000 2.351263 2.954857 -10.269802 -5.358597 0.203400 12.596681 8.350597 3.013256 -30.258303 0.000000 0.000000 0.000000 -167.769613 -61.811349 179.145817 129.326608 -40.583527 -99.653343 -0.296902 2.165780 -15.610035 0.000000 0.000000 0.000000 86.899528 55.213338 84.619836 -28.490164 36.180849 -15.220485 0.010160 0.404364 2.878462
-0.059856 0.604210 -0.042437 -7.558600 -23.259100 13.812100 -4.158740 32.166553 -72.400485 0.314365 -0.751681 72.230779 4.118576 26.595465 -0.100078 0.000000 0.000000 0.000000 -19.402033 -2.537213 0.637755 1.718561 1.592045 52.678301 1.251747 -18.789142 -1.392151 0.000000 0.000000 0.000000 -0.722173 13.284577 11.896404 0.000000 0.000000 0.000000 1.894156 3.636278 -10.764329 -4.400003 1.761102 11.939823 5.998337 5.480380 -28.502218 0.000000 0.000000 0.000000 -161.949090 -66.535264 174.723630 132.154719 -38.691375 -101.808378 -0.187044 1.725160 -12.374898 0.000000 0.000000 0.000000 91.482812 52.694760 95.607755 -38.560452 42.882008 -22.898143 0.035309 0.753229 5.367665
-0.071777 0.606946 -0.078922 -11.023300 -30.116400 15.285100 1.881325 35.551114 -71.311787 -0.004515 -0.808370 71.734670 3.903638 27.471047 1.806004 0.000000 0.000000 0.000000 -19.120145 1.375995 3.006198 1.306280 1.654730 40.583364 1.438844 -12.864146 -0.366253 0.000000 0.000000 0.000000 1.791396 14.827950 11.694463 0.000000 0.000000 0.000000 1.949300 4.201726 -10.981380 -2.912303 3.164801 11.849834 3.740358 7.599529 -26.625512 0.000000 0.000000 0.000000 -125.542363 -72.020178 138.409792 134.088147 -37.281677 -103.250531 -0.094010 1.226741 -8.764225 0.000000 0.000000 0.000000 87.087370 44.766198 93.614688 -61.138725 51.010817 -41.657694 0.103642 1.287654 9.203224
-0.083779 0.604057 -0.116435 -15.109900 -33.032100 17.634800 9.470127 35.254956 -70.661109 -0.159346 -0.846895 72.256550 3.183560 25.039901 3.668608 0.000000 0.000000 0.000000 -15.085107 2.962797 4.708017 1.018190 1.603884 33.019287 1.509786 -15.287596 -1.486263 0.000000 0.000000 0.000000 5.672847 12.998155 10.838234 0.000000 0.000000 0.000000 2.273434 3.827227 -10.462695 -1.209608 4.960499 11.168265 0.840851 10.376600 -23.184429 0.000000 0.000000 0.000000 -74.707081 -60.936570 81.690747 132.747034 -38.269984 -102.252898 -0.190058 1.738833 -12.474637 0.000000 0.000000 0.000000 79.224366 30.065618 84.676660 -93.605049 52.454298 -69.864149 0.004363 0.265035 1.886180
